<?xml version="1.0" encoding="utf-8" ?>
<svg xmlns="http://www.w3.org/2000/svg" xmlns:xlink="http://www.w3.org/1999/xlink" width="967" height="967">
	<path fill="#041026" transform="scale(0.944933 0.944933)" d="M0 -0L1024 0L1024 1024L-0 1024L0 -0Z"/>
	<path fill="#0E9F94" transform="scale(0.944933 0.944933)" d="M787.985 508.684L815.633 508.926L815.057 508.986L796.449 509.175C796.447 511.229 796.25 513.463 796.646 515.475L787.992 515.452L787.985 508.684Z"/>
	<path fill="#053741" transform="scale(0.944933 0.944933)" d="M285.562 478.87L285.595 486.023L276.374 486.103L276.413 478.969L285.562 478.87Z"/>
	<path fill="#053741" transform="scale(0.944933 0.944933)" d="M266.414 509.046C271.965 508.697 280.413 507.984 285.603 509.795L285.602 514.626C284.489 515.353 283.408 515.822 282.08 515.941C273.872 516.679 265.088 516.116 256.818 516.135C249.293 516.153 240.879 516.89 233.455 515.921C237.522 515.355 241.989 515.676 246.104 515.65L270.198 515.34C270.467 513.606 271.08 511.452 270.564 509.75L266.414 509.046Z"/>
	<path fill="#025335" transform="scale(0.944933 0.944933)" d="M316.1 183.013L318.299 182.98C319.477 202.203 318.533 222.016 318.518 241.301L318.505 252.673C318.501 254.63 318.227 256.96 318.744 258.846C321.709 258.872 325.113 258.606 328.012 259.113L300.615 259.314C301.612 258.676 303.232 258.952 304.412 258.945L316.029 258.868L316.1 183.013Z"/>
	<path fill="#0BBD97" transform="scale(0.944933 0.944933)" d="M332.289 862.745C339.852 867.177 398.872 905.425 400.996 909L400.25 910.001C396.365 908.885 391.651 904.765 388.215 902.509L347.453 875.514L336.431 868.148C334.725 866.993 332.891 865.419 331.043 864.594L332.289 862.745Z"/>
	<path fill="#0BBD97" transform="scale(0.944933 0.944933)" d="M329.482 772.598L331.953 772.779L331.926 837.509C332.023 845.685 331.222 854.724 332.289 862.745L331.043 864.594C330.698 864.146 330.198 863.783 330.009 863.25C329.564 861.995 329.974 858.603 329.963 857.162L329.953 836.523C329.186 829.234 329.62 821.471 329.596 814.133L329.482 772.598Z"/>
	<path fill="#0BBD97" transform="scale(0.944933 0.944933)" d="M313.447 770.106L314.711 770.401L314.978 872.095L346.237 893.004L381.733 916.102C386.622 919.316 393.042 922.642 397.146 926.75L396.745 928.25C394.435 928.25 387.931 923.018 385.691 921.572L345.441 895.448L312.895 873.978L312.798 799.493L312.725 779.341C312.713 776.654 312.12 772.402 313.447 770.106Z"/>
	<path fill="#0BBD97" transform="scale(0.944933 0.944933)" d="M316.1 183.013C317.578 180.501 322.458 178.032 324.886 176.366L355.435 156.415L470.269 83.0977L470.476 86.353C455.339 94.3881 440.95 104.71 426.5 113.986L354.124 160.221L329.575 176.19C325.999 178.453 322.165 181.308 318.299 182.98L316.1 183.013Z"/>
	<defs>
		<linearGradient id="gradient_0" gradientUnits="userSpaceOnUse" x1="674.94495" y1="132.98308" x2="635.27863" y2="231.70494">
			<stop offset="0" stop-color="#03B67E"/>
			<stop offset="1" stop-color="#17E9A3"/>
		</linearGradient>
	</defs>
	<path fill="url(#gradient_0)" transform="scale(0.944933 0.944933)" d="M613.76 109.979L615.686 107.727L696.256 160.688L696.136 258.992L693.752 258.993L693.73 162.753C691.492 159.986 685.551 157.157 682.384 155.158L664.031 143.25L613.76 109.979Z"/>
	<defs>
		<linearGradient id="gradient_1" gradientUnits="userSpaceOnUse" x1="675.28601" y1="125.98264" x2="661.96527" y2="144.40408">
			<stop offset="0" stop-color="#03A479"/>
			<stop offset="1" stop-color="#07CB7E"/>
		</linearGradient>
	</defs>
	<path fill="url(#gradient_1)" transform="scale(0.944933 0.944933)" d="M709.633 259.019L709.534 152.939C705.005 148.922 699.081 145.873 694 142.533L650.904 114.019C642.728 108.609 633.62 103.466 626.25 97.0195C624.47 95.4631 623.281 93.9285 622.159 91.8555C626.252 93.1866 629.732 96.436 633.203 98.9204L646.695 108.008L695.124 139.985L706.136 147.352C708.126 148.698 710.449 150 712.008 151.851L711.87 258.967L709.633 259.019Z"/>
	<path fill="#FDFDFD" transform="scale(0.944933 0.944933)" d="M414.373 912.06C416.864 911.946 419.42 912.026 421.75 912.999C424.886 914.31 427.428 917.146 428.64 920.297C429.915 923.611 429.762 927.45 428.3 930.672C426.42 934.813 422.957 936.804 418.92 938.401C415.787 938.581 413.237 938.576 410.369 937.053C407.126 935.331 404.817 932.104 403.848 928.598C402.901 925.174 403.685 921.116 405.446 918.069C407.504 914.506 410.525 913.051 414.373 912.06Z"/>
	<path fill="#041026" transform="scale(0.944933 0.944933)" d="M413.461 916.103C415.103 915.921 416.858 915.8 418.5 915.995C420.633 916.248 422.748 917.924 423.941 919.634C425.464 921.819 426.156 924.959 425.377 927.562C424.34 931.034 422.203 932.678 419.054 934.225C417.731 934.449 416.124 934.626 414.797 934.431C412.378 934.076 410.089 932.439 408.75 930.429C407.403 928.406 407.083 925.397 407.575 923.047C408.304 919.567 410.566 917.837 413.461 916.103Z"/>
	<path fill="#2BF1F2" transform="scale(0.944933 0.944933)" d="M605.777 113.677C605.256 113.301 605.557 113.461 604.759 113.232C600.588 112.032 597.152 110.369 594.593 106.702C592.625 103.881 591.778 100.481 592.442 97.0947C593.139 93.5409 595.754 90.1372 598.725 88.1491C601.54 86.2658 604.866 85.6158 608.176 86.3679C611.466 87.1156 614.484 89.4112 616.25 92.2616C617.999 95.0854 618.852 99.4959 618.006 102.72C617.54 104.499 616.578 106.134 615.686 107.727L613.76 109.979C611.146 111.933 608.827 112.683 605.777 113.677Z"/>
	<path fill="#041026" transform="scale(0.944933 0.944933)" d="M604.184 91.5507C605.576 91.5162 607.021 91.6674 608.334 92.1564C610.168 92.8394 611.579 94.1258 612.355 95.9349C613.194 97.8919 613.288 100.517 612.483 102.5C611.37 105.238 609.608 106.473 606.986 107.637C605.814 107.647 604.658 107.658 603.524 107.301C601.392 106.629 599.68 105.173 598.663 103.189C597.669 101.251 597.669 98.4083 598.491 96.4062C599.568 93.7806 601.755 92.7103 604.184 91.5507Z"/>
	<path fill="#20C7B5" transform="scale(0.944933 0.944933)" d="M196.805 814.724L203.025 815.527C207.038 817.249 209.885 820.172 211.716 824.12L212.274 830.681C211.984 832.123 211.663 833.545 211.032 834.882C209.357 838.432 205.97 841.112 202.25 842.244C198.952 843.247 194.976 842.789 191.972 841.125C188.74 839.336 186.074 836.06 185.144 832.464C184.203 828.826 184.427 825.266 186.399 822C188.795 818.03 192.421 815.879 196.805 814.724Z"/>
	<path fill="#20C7B5" transform="scale(0.944933 0.944933)" d="M813.055 195.375C813.607 191.666 815.51 188.962 818.53 186.744C821.713 184.408 825.551 183.649 829.42 184.317C833.232 184.975 836.15 186.995 838.283 190.22C840.333 193.317 841.255 197.585 840.512 201.245C839.773 204.885 837.663 208.465 834.5 210.507C833.305 211.279 831.963 211.91 830.621 212.373L824.022 212.432C822.695 212.206 821.591 211.942 820.383 211.325C816.784 209.486 814.652 206.5 813.451 202.721C813.364 201.271 813.207 199.751 813.321 198.301C813.413 197.126 813.498 196.497 813.055 195.375Z"/>
	<path fill="#20C7B5" transform="scale(0.944933 0.944933)" d="M822.557 814.758C825.025 814.502 827.1 814.471 829.566 814.798C834.737 817.174 837.787 819.819 839.859 825.223C840.839 827.779 840.935 831.402 840.099 834L839.894 834.649C838.771 837.98 836.087 841.014 832.894 842.51C829.071 844.301 824.611 844.337 820.72 842.717C816.848 841.104 813.775 837.918 812.334 833.97L812.012 832.888C811.739 830.723 811.802 828.516 811.781 826.336C811.858 825.628 811.921 824.931 812.145 824.25C813.787 819.276 818.067 816.73 822.557 814.758Z"/>
	<path fill="#20C7B5" transform="scale(0.944933 0.944933)" d="M195.182 211.981L193.25 211.392C189.744 209.939 187.13 206.698 185.816 203.207C184.376 199.381 184.794 194.926 186.5 191.25C188.163 187.669 191.543 184.648 195.306 183.436C198.788 182.314 203.073 182.786 206.26 184.54C209.81 186.494 212.202 189.394 213.291 193.307C212.922 195.632 212.825 198.296 213.295 200.616C212.421 204.839 210.358 208.374 206.618 210.694C205.278 211.526 203.805 211.991 202.303 212.434C199.882 212.537 197.58 212.259 195.182 211.981Z"/>
	<path fill="#0BBD97" transform="scale(0.944933 0.944933)" d="M551.489 946.172C551.206 947.747 550.732 949.082 549.877 950.45C547.716 953.906 543.986 956.322 539.993 957.058C535.99 957.795 532.834 957.407 529.494 954.92C526.023 952.335 523.095 948.285 522.599 943.895C522.181 940.193 523.726 936.168 526.055 933.336C529.569 929.065 533.809 927.984 539.03 927.469L542.041 928.302C546.155 930.124 549.547 933.833 551.087 938.07L551.683 940.012L551.489 946.172Z"/>
	<path fill="#041026" transform="scale(0.944933 0.944933)" d="M535.155 932.546C536.613 932.479 538.312 932.32 539.742 932.648C542.123 933.193 544.507 934.84 545.75 936.938C547.31 939.571 547.971 942.79 546.984 945.75C545.901 949.001 542.938 950.87 539.999 952.235C538.07 952.436 536.066 952.574 534.186 952.005C531.596 951.222 529.631 949.2 528.4 946.847C527.286 944.717 527.118 942.065 527.893 939.79C529.184 935.997 531.716 934.262 535.155 932.546Z"/>
	<path fill="#20C7B5" transform="scale(0.944933 0.944933)" d="M929.75 439.941C930.842 435.82 932.843 432.664 936.548 430.414C939.678 428.513 944.058 427.843 947.618 428.828C951.176 429.813 954.383 432.767 956.077 435.992C958.2 440.033 958.4 445.256 956.816 449.526C955.521 453.018 952.811 455.952 949.344 457.354C945.816 458.781 941.787 458.92 938.25 457.422C934.346 455.77 931.482 452.365 930.091 448.421L929.565 446.664L929.75 439.941Z"/>
	<path fill="#2BF1F2" transform="scale(0.944933 0.944933)" d="M470.269 83.0977C471.635 78.3386 473.47 74.4759 478.027 71.9247C481.385 70.0444 485.456 69.8105 489.113 70.9382C492.906 72.1075 496.245 75.2507 497.991 78.7647C499.744 82.2932 500.173 86.7135 498.764 90.4517C497.299 94.3404 494.234 97.6188 490.356 99.1515C487.555 100.258 484.74 100.27 481.779 100.031L478.694 98.6941C474.159 95.1814 471.978 91.8415 470.476 86.353L470.269 83.0977Z"/>
	<path fill="#041026" transform="scale(0.944933 0.944933)" d="M482.471 75.1072C484.249 74.9942 486.025 74.9795 487.75 75.4984C490.409 76.2982 492.709 78.5281 493.866 81.0048C495.016 83.4638 495.317 86.1955 494.326 88.75C493.098 91.9185 490.458 93.6524 487.528 95.063C485.768 95.2639 483.744 95.2356 482.048 94.6857C479.419 93.8333 477.223 91.8879 476.076 89.3762C474.896 86.7906 474.887 84.0615 475.922 81.4132C477.201 78.1431 479.404 76.563 482.471 75.1072Z"/>
	<path fill="#0BBD97" transform="scale(0.944933 0.944933)" d="M670.24 768.695L709.434 768.683C716.036 768.674 723.113 768.073 729.628 768.75L697.998 768.936L697.978 846.699C694.557 845.443 696.976 841.857 695.682 839.114L695.54 828.127L542.041 928.302L539.03 927.469L695.476 824.564L695.495 768.865L670.872 768.754L670.24 768.695Z"/>
	<path fill="#20C7B5" transform="scale(0.944933 0.944933)" d="M907.155 508.705C906.853 510.78 906.469 512.81 906.62 514.912L796.646 515.475C796.25 513.463 796.447 511.229 796.449 509.175L815.057 508.986L815.633 508.926L907.155 508.705Z"/>
	<path fill="#20C7B5" transform="scale(0.944933 0.944933)" d="M928.888 580.061C930.422 575.469 932.962 572.073 937.412 569.899C940.597 568.343 945.1 567.805 948.516 568.999C952.144 570.268 955.236 573.208 956.828 576.706C958.86 581.17 958.833 586.183 957.033 590.73C955.593 594.369 952.636 597.376 948.964 598.751C945.51 600.044 940.994 599.936 937.654 598.357C932.972 596.145 930.606 592.209 929.048 587.43L928.866 586.857L928.888 580.061Z"/>
	<path fill="#0BBD97" transform="scale(0.944933 0.944933)" d="M95.3442 579.944L132.304 580.068C132.856 580.056 133.486 580.041 133.977 579.736C134.552 579.379 135.593 577.759 136.078 577.185L142.065 570.549L175.215 536.09L183.995 535.993L183.986 542.942L177.502 542.964L136.105 587.039L95.7894 587.163L95.3442 579.944Z"/>
	<path fill="#20C7B5" transform="scale(0.944933 0.944933)" d="M95.7894 587.163C94.5166 592.076 92.8669 596.084 88.193 598.7C84.713 600.648 79.8755 601.012 76.1037 599.787C71.9389 598.435 68.4888 595.408 66.6505 591.438C64.9566 587.779 64.7579 582.73 66.3205 578.993C67.9959 574.987 71.1921 571.617 75.25 570.01C79.0558 568.502 84.0642 568.693 87.7518 570.484C92.049 572.571 93.8786 575.58 95.3442 579.944L95.7894 587.163Z"/>
	<path fill="#20C7B5" transform="scale(0.944933 0.944933)" d="M99.3322 447.445C97.8436 447.441 96.2849 447.3 94.8509 447.75C93.3205 451.949 91.1242 454.951 87.0429 456.988C83.0148 459 78.1254 458.863 73.9932 457.277C70.3208 455.867 67.6026 452.938 66.1252 449.323C64.2859 444.822 64.5702 439.293 66.699 434.922C68.5066 431.21 71.962 428.139 75.9247 426.932C79.8105 425.748 84.0453 426.461 87.5 428.515C92.1784 431.296 93.8544 435.476 95.1149 440.495L96.336 441.33L95.7462 442.031C95.7466 443.455 95.3925 445.933 96.25 447L97 446.877C98.0101 446.793 98.3991 446.767 99.2491 447.346L99.3322 447.445Z"/>
	<path fill="#0BBD97" transform="scale(0.944933 0.944933)" d="M824.022 212.432L830.621 212.373L830.987 334.526L823.135 334.369L823.75 333.888L824.022 212.432Z"/>
	<path fill="#0BBD97" transform="scale(0.944933 0.944933)" d="M196.629 675.443C198.636 679.928 200.516 684.716 203.095 688.897L203.025 815.527L196.805 814.724L196.629 675.443Z"/>
	<path fill="#0BBD97" transform="scale(0.944933 0.944933)" d="M729.628 768.75L753.156 768.868L735.831 768.962L735.918 826.655L788.488 826.536C795.972 826.511 804.397 827.266 811.781 826.336C811.802 828.516 811.739 830.723 812.012 832.888L729.573 833.106L729.628 768.75Z"/>
	<path fill="#FDFDFD" transform="scale(0.944933 0.944933)" d="M117.074 515.971L116.933 516.336C116.147 518.514 115.426 520.547 114.056 522.453C111.258 526.346 107.26 528.879 102.51 529.622C98.2759 530.284 93.5194 529.414 90.1118 526.73C86.351 523.767 83.9933 519.413 83.5349 514.642C83.0217 509.299 84.5368 504.321 88.1258 500.25C91.0687 496.912 95.6 495.088 100 495.085C104.68 495.081 108.95 496.953 112.105 500.409C114.454 502.983 115.944 505.93 117.414 509.056C117.371 511.337 117.468 513.722 117.074 515.971Z"/>
	<path fill="#0BBD97" transform="scale(0.944933 0.944933)" d="M288.96 763.272L295.539 765.62L295.575 830.758L212.274 830.681L211.716 824.12L288.7 824.309L288.96 763.272Z"/>
	<path fill="#CFCFE1" transform="scale(0.944933 0.944933)" d="M907.155 508.705C908.86 503.817 911.452 499.287 916.265 496.858C920.218 494.863 924.914 494.545 929.116 495.953C933.532 497.433 937.169 501.313 939.03 505.5C940.95 509.821 941.088 515.074 939.349 519.473C937.694 523.659 934.6 527.455 930.344 529.146C926.188 530.798 921.173 530.686 917.129 528.75C912.841 526.697 909.191 523.05 907.682 518.486L906.62 514.912C906.469 512.81 906.853 510.78 907.155 508.705Z"/>
	<path fill="#0BBD97" transform="scale(0.944933 0.944933)" d="M213.291 193.307L214.212 193.411L293.559 193.519L293.564 259.284L286.47 259.305L286.604 200.41L213.295 200.616C212.825 198.296 212.922 195.632 213.291 193.307Z"/>
	<path fill="#0BBD97" transform="scale(0.944933 0.944933)" d="M813.055 195.375C813.498 196.497 813.413 197.126 813.321 198.301C813.207 199.751 813.364 201.271 813.451 202.721L761.299 202.739L747.596 202.777C744.8 202.789 741.803 202.572 739.062 203.121C738.389 203.814 737.355 204.726 737.079 205.672C736.704 206.956 736.922 208.879 736.92 210.25L736.931 219.477L736.921 258.939L729.151 258.974L729.354 221.621C729.371 216.048 728.725 209.688 729.638 204.25C729.956 202.355 731.209 200.392 732.496 199C733.83 197.556 735.799 196.085 737.75 195.663C740.224 195.128 743.019 195.333 745.537 195.335L759.359 195.381L813.055 195.375Z"/>
	<path fill="#0BBD97" transform="scale(0.944933 0.944933)" d="M928.866 586.857L891.434 586.966L851.15 544.922L795.971 544.974L796.231 538.395C803.1 537.56 810.43 538.025 817.358 538.021L853.403 538.136L893.497 580.023L928.888 580.061L928.866 586.857Z"/>
	<path fill="#0BBD97" transform="scale(0.944933 0.944933)" d="M929.565 446.664L891.559 446.411L852.232 487.162L807.826 486.97L797.344 486.886C795.926 486.861 793.907 487.077 792.616 486.571C792.045 486.347 791.851 485.815 791.699 485.25C791.275 483.669 791.826 482.146 792.496 480.75L849.249 480.554L888.159 440.029L929.75 439.941L929.565 446.664Z"/>
	<path fill="#0BBD97" transform="scale(0.944933 0.944933)" d="M117.414 509.056L266.414 509.046L270.564 509.75C271.08 511.452 270.467 513.606 270.198 515.34L246.104 515.65C241.989 515.676 237.522 515.355 233.455 515.921L117.074 515.971C117.468 513.722 117.371 511.337 117.414 509.056Z"/>
	<path fill="#0E9F94" transform="scale(0.944933 0.944933)" d="M822.557 814.758L822.802 701.507L822.858 681.236C822.861 679.967 823.277 676.027 822.802 675.033C822.101 673.564 818.67 670.808 817.387 669.494C812.865 664.863 790.59 643.313 789.189 639.063C788.637 637.388 788.885 633.556 788.781 631.688C792.74 635.756 829.396 673.232 829.559 673.889C830.014 675.724 829.537 679.094 829.531 681.049L829.471 705.557L829.566 814.798C827.1 814.471 825.025 814.502 822.557 814.758Z"/>
	<path fill="#0BBD97" transform="scale(0.944933 0.944933)" d="M195.182 211.981C197.58 212.259 199.882 212.537 202.303 212.434C202.377 225.196 201.769 343.467 202.473 344.675C203.815 346.977 207.245 349.745 209.126 351.71L227.671 370.719C230.932 374.057 234.613 377.376 237.424 381.1L237.51 390.029L200.45 353.011C199.3 351.859 195.393 348.453 194.996 347.206C194.556 345.826 195.001 342.315 195.003 340.691L195.027 319.656L195.182 211.981Z"/>
	<path fill="#0BBD97" transform="scale(0.944933 0.944933)" d="M95.1149 440.495C99.4993 440.537 134.051 440.122 135.658 440.937C136.236 441.23 137.262 442.522 137.756 443.013L143.859 449.139L164.182 470.022C166.896 472.823 169.955 476.94 173.158 479.003L259.672 479.05L276.413 478.969L276.374 486.103L257.24 486.009L171.973 485.873C171.387 485.856 170.89 485.914 170.36 485.641C166.882 483.847 162.954 478.809 160.184 476.03L132.584 447.513L99.3322 447.445L99.2491 447.346C98.3991 446.767 98.0101 446.793 97 446.877L96.25 447C95.3925 445.933 95.7466 443.455 95.7462 442.031L96.336 441.33L95.1149 440.495Z"/>
	<path fill="#08A3FD" transform="scale(0.944933 0.944933)" d="M830.987 334.526C834.042 334.888 836.991 335.524 839.79 336.823C846.907 340.127 852.642 347.04 855.25 354.391C857.864 361.759 857.435 370.961 853.953 378C850.339 385.308 844.202 391.243 836.335 393.731C828.374 396.25 818.834 395.432 811.499 391.385C804.414 387.477 798.709 380.406 796.582 372.579L796.366 371.75C794.57 365.135 795.231 358.138 798.108 351.914C801.571 344.424 808.5 338.556 816.185 335.701C818.55 334.823 820.6 334.433 823.135 334.369L830.987 334.526Z"/>
	<path fill="#041026" transform="scale(0.944933 0.944933)" d="M822.453 341.577C827.603 341.033 831.962 341.143 836.687 343.575C842.425 346.528 846.685 351.441 848.553 357.628C850.447 363.901 849.761 370.601 846.465 376.288C842.877 382.48 837.409 385.475 830.773 387.32C827.593 387.724 823.609 387.754 820.521 386.843L819.75 386.599C818.318 386.159 816.967 385.695 815.623 385.022C810.598 382.507 806.571 377.816 804.828 372.453C802.724 365.985 802.899 359.347 806.25 353.326C809.871 346.82 815.524 343.491 822.453 341.577Z"/>
	<defs>
		<linearGradient id="gradient_2" gradientUnits="userSpaceOnUse" x1="813.83362" y1="356.44769" x2="838.7887" y2="371.52213">
			<stop offset="0" stop-color="#07B0FE"/>
			<stop offset="1" stop-color="#0F8EFF"/>
		</linearGradient>
	</defs>
	<path fill="url(#gradient_2)" transform="scale(0.944933 0.944933)" d="M824.346 348.593C827.697 348.529 830.983 348.66 834 350.344C837.654 352.383 840.393 355.57 841.403 359.68C842.509 364.182 841.664 369.254 839.232 373.201C836.804 377.141 833.372 378.951 829.046 380.033C826.02 380.118 823.44 380.093 820.587 378.884C816.407 377.112 813.243 373.657 811.678 369.402C810.285 365.612 810.8 360.667 812.676 357.098C815.176 352.344 819.41 350.052 824.346 348.593Z"/>
	<path fill="#041026" transform="scale(0.944933 0.944933)" d="M825.078 356.527L826.398 356.667C828.533 356.952 830.246 357.674 831.523 359.479C833 361.569 833.73 365.019 832.828 367.48C831.994 369.757 829.449 370.788 827.352 371.434C826.14 371.311 824.821 371.21 823.66 370.823C822.134 370.315 820.505 368.697 819.863 367.229C819.115 365.516 819.23 362.587 819.956 360.884C820.972 358.499 822.802 357.5 825.078 356.527Z"/>
	<path fill="#041026" transform="scale(0.944933 0.944933)" d="M542.041 928.302L695.54 828.127L695.682 839.114C696.976 841.857 694.557 845.443 697.978 846.699C697.802 847.095 697.745 847.568 697.452 847.887C696.197 849.252 693.171 850.677 691.552 851.731L672.542 864.081L572.281 929.929L557.52 939.308C556.419 939.962 552.775 941.609 552.123 942.537C551.739 943.085 551.679 945.367 551.489 946.172L551.683 940.012L551.087 938.07C549.547 933.833 546.155 930.124 542.041 928.302Z"/>
	<path fill="#0BBD97" transform="scale(0.944933 0.944933)" d="M695.682 839.114C696.976 841.857 694.557 845.443 697.978 846.699C697.802 847.095 697.745 847.568 697.452 847.887C696.197 849.252 693.171 850.677 691.552 851.731L672.542 864.081L572.281 929.929L557.52 939.308C556.419 939.962 552.775 941.609 552.123 942.537C551.739 943.085 551.679 945.367 551.489 946.172L551.683 940.012C556.669 937.56 561.643 933.698 566.287 930.625L592.516 913.471L695.558 845.974L695.682 839.114Z"/>
	<path fill="#041026" transform="scale(0.944933 0.944933)" d="M613.76 109.979L664.031 143.25L682.384 155.158C685.551 157.157 691.492 159.986 693.73 162.753L693.752 258.993L675.033 259.067L674.915 169.408C673.313 167.546 670.705 166.083 668.654 164.749L657.606 157.624L609.544 126.744C607.026 123.748 609.313 119.143 607.398 116.002L605.777 113.677C608.827 112.683 611.146 111.933 613.76 109.979Z"/>
	<path fill="#041026" transform="scale(0.944933 0.944933)" d="M318.299 182.98C322.165 181.308 325.999 178.453 329.575 176.19L354.124 160.221L426.5 113.986C440.95 104.71 455.339 94.3881 470.476 86.353C471.978 91.8415 474.159 95.1814 478.694 98.6941L481.779 100.031L330.923 197.058L330.928 259.197L328.012 259.113C325.113 258.606 321.709 258.872 318.744 258.846C318.227 256.96 318.501 254.63 318.505 252.673L318.518 241.301C318.533 222.016 319.477 202.203 318.299 182.98Z"/>
	<defs>
		<linearGradient id="gradient_3" gradientUnits="userSpaceOnUse" x1="388.77524" y1="152.83412" x2="419.27313" y2="204.24741">
			<stop offset="0" stop-color="#05B683"/>
			<stop offset="1" stop-color="#1ADCA7"/>
		</linearGradient>
	</defs>
	<path fill="url(#gradient_3)" transform="scale(0.944933 0.944933)" d="M478.694 98.6941L481.779 100.031L330.923 197.058L330.928 259.197L328.012 259.113L328.187 195.8C331.453 192.565 337.032 189.93 340.966 187.415L367.406 170.324L431.5 129.469L478.694 98.6941Z"/>
	<path fill="#193B75" transform="scale(0.944933 0.944933)" d="M659.897 755.981L660.473 756.5L659.96 800.455L533.63 880.526L533.161 880.075L533.006 837.253C535.046 834.777 539.226 832.655 542 830.888L561.238 818.668L631.601 774.386C641.137 768.28 650.924 762.962 659.897 755.981Z"/>
	<path fill="#2BF1F2" transform="scale(0.944933 0.944933)" d="M357.539 259.242L357.625 227.426L493.075 140.018L493.133 181.514L387.858 249.604L387.821 259.174L395.251 259.163L357.539 259.242Z"/>
	<path fill="#041026" transform="scale(0.944933 0.944933)" d="M203.025 815.527L203.095 688.897C207.271 695.795 211.328 702.638 216.174 709.099C234.661 733.749 259.868 752.902 288.96 763.272L288.7 824.309L211.716 824.12C209.885 820.172 207.038 817.249 203.025 815.527Z"/>
	<path fill="#041026" transform="scale(0.944933 0.944933)" d="M213.295 200.616L286.604 200.41L286.47 259.305L256.979 259.338C252.41 259.33 247.239 258.864 242.743 259.54C241.636 259.706 240.655 260.26 239.868 261.04C238.709 262.188 237.78 263.791 237.566 265.423C237.012 269.624 237.34 274.299 237.344 278.545L237.373 301.494L237.424 381.1C234.613 377.376 230.932 374.057 227.671 370.719L209.126 351.71C207.245 349.745 203.815 346.977 202.473 344.675C201.769 343.467 202.377 225.196 202.303 212.434C203.805 211.991 205.278 211.526 206.618 210.694C210.358 208.374 212.421 204.839 213.295 200.616Z"/>
	<defs>
		<linearGradient id="gradient_4" gradientUnits="userSpaceOnUse" x1="535.60638" y1="269.72247" x2="492.16086" y2="84.31205">
			<stop offset="0" stop-color="#1BB5A7"/>
			<stop offset="1" stop-color="#32E8BC"/>
		</linearGradient>
	</defs>
	<path fill="url(#gradient_4)" transform="scale(0.944933 0.944933)" d="M434.465 259.052L524.638 200.322L524.958 74.6808L596.978 119.954L596.593 250.738C591.616 253.015 588.012 255.422 584.376 259.576C572.096 258.907 559.516 259.474 547.202 259.479L471.363 259.458L448.849 259.343C444.12 259.342 439.153 259.689 434.465 259.052Z"/>
	<path fill="#0B7283" transform="scale(0.944933 0.944933)" d="M350.504 772.804C382.124 771.261 411.03 761.905 437 743.544C443.969 738.617 450.183 733.06 456.456 727.3L456.508 749.312C456.521 752.889 456.132 757.079 456.873 760.578C457.319 762.678 458.559 764.8 460.093 766.291C461.505 767.664 463.456 769.08 465.495 769.051L577.402 769.131L577.373 770.772C569 774.683 561.371 780.935 553.532 785.926L496.053 822.078L496.101 943.786L424.986 902.75L424.542 902.89L424.028 904.75C422.482 906.142 415.39 905.315 412.981 905.274L412.981 896.328C410.322 895.345 407.618 893.466 405.141 892.062L389.671 883.17L350.436 860.407L350.504 772.804Z"/>
	<path fill="#20C7B5" transform="scale(0.944933 0.944933)" d="M412.981 896.328L413.113 828.237L412.496 827.97C407.189 825.618 403.519 822.002 401.346 816.563C399.457 811.834 399.941 805.787 402.093 801.229C404.333 796.484 408.438 792.958 413.438 791.391C417.689 790.059 423.139 790.477 427.049 792.597C431.88 795.218 435.238 799.262 436.678 804.591C438.115 809.905 437.053 816.514 434.156 821.138C431.805 824.89 428.084 827.325 423.986 828.815L424.053 881.008L424.102 895.665C424.125 897.947 423.872 900.723 424.542 902.89L424.028 904.75C422.482 906.142 415.39 905.315 412.981 905.274L412.981 896.328Z"/>
	<path fill="#FDFDFD" transform="scale(0.944933 0.944933)" d="M607.398 116.002C609.313 119.143 607.026 123.748 609.544 126.744L657.606 157.624L668.654 164.749C670.705 166.083 673.313 167.546 674.915 169.408L675.033 259.067L693.752 258.993L696.136 258.992L709.633 259.019L711.87 258.967L729.151 258.974L736.921 258.939L764.418 258.956C769.303 258.952 775.383 258.324 780.101 259.461C781.761 259.861 783.42 260.815 784.617 262.04C786.76 264.234 787.559 267.159 787.851 270.126C788.674 278.467 788.035 287.545 788.033 295.959L787.989 348.045L787.985 508.684L787.992 515.452L787.825 687.146L787.739 735.193C787.758 742.652 788.612 751.112 787.684 758.48C787.364 761.022 785.868 763.913 784.081 765.75C780.081 769.862 773.664 768.904 768.418 768.906L753.156 768.868L729.628 768.75C723.113 768.073 716.036 768.674 709.434 768.683L670.24 768.695L669.019 768.2C666.578 766.974 664.311 763.865 663.517 761.295L663.362 760.75C662.066 756.38 662.86 750.474 662.88 745.877L663.016 716.187L589.096 762.914C585.452 765.187 581.321 769.403 577.373 770.772L577.402 769.131L465.495 769.051C463.456 769.08 461.505 767.664 460.093 766.291C458.559 764.8 457.319 762.678 456.873 760.578C456.132 757.079 456.521 752.889 456.508 749.312L456.456 727.3C450.183 733.06 443.969 738.617 437 743.544C411.03 761.905 382.124 771.261 350.504 772.804L331.953 772.779L329.482 772.598L314.711 770.401L313.447 770.106L295.539 765.62L288.96 763.272C259.868 752.902 234.661 733.749 216.174 709.099C211.328 702.638 207.271 695.795 203.095 688.897C200.516 684.716 198.636 679.928 196.629 675.443L191.743 661.913C189.885 664.23 188.242 666.184 185.481 667.491C182.553 668.877 178.277 669.204 175.25 667.961C171.876 666.576 169.048 663.704 167.745 660.299C166.339 656.621 166.632 652.88 168.316 649.338C169.683 646.462 172.448 643.802 175.469 642.739C178.552 641.655 182.448 641.35 185.418 642.874L186.086 643.25L186.605 643C183.014 627.473 183.983 611.372 183.978 595.546L183.986 542.942L183.995 535.993L285.546 535.901L285.602 514.626L285.603 509.795L285.595 486.023L285.562 478.87L285.726 395.006L243.304 394.951C241.076 393.781 239.525 392.472 237.918 390.531L237.51 390.029L237.424 381.1L237.373 301.494L237.344 278.545C237.34 274.299 237.012 269.624 237.566 265.423C237.78 263.791 238.709 262.188 239.868 261.04C240.655 260.26 241.636 259.706 242.743 259.54C247.239 258.864 252.41 259.33 256.979 259.338L286.47 259.305L293.564 259.284L300.615 259.314L328.012 259.113L330.928 259.197L357.539 259.242L395.251 259.163L434.465 259.052C439.153 259.689 444.12 259.342 448.849 259.343L471.363 259.458L547.202 259.479C559.516 259.474 572.096 258.907 584.376 259.576C588.012 255.422 591.616 253.015 596.593 250.738L596.978 119.954C597.012 118.855 596.921 117.581 597.396 116.571C597.724 115.873 598.766 116.363 599.439 116.461C602.183 116.858 604.166 117.126 606.866 116.194L607.398 116.002Z"/>
	<path fill="#041026" transform="scale(0.944933 0.944933)" d="M179.091 646.121C180.785 646.246 182.775 646.247 184.25 647.201C186.662 648.762 188.3 651.734 188.867 654.5C189.323 656.725 188.838 658.957 187.599 660.848C185.983 663.315 183.53 664.214 180.791 664.885C179.113 664.742 177.361 664.605 175.853 663.785C174.03 662.793 172.362 660.85 171.75 658.859C170.97 656.32 170.897 653.408 172.217 651.027C173.835 648.108 175.966 646.949 179.091 646.121Z"/>
	<path fill="#0B7283" transform="scale(0.944933 0.944933)" d="M318.314 612.235L318.346 571.014L366.048 571.068L366.189 603.462C366.182 608.857 366.817 615.319 365.63 620.588C364.875 623.943 362.704 627.409 360.334 629.834C355.2 635.088 348.468 636.665 341.381 636.561C340.033 636.542 338.817 636.458 337.5 636.163L336.698 635.988C330.486 634.567 325.113 630.959 321.75 625.515C319.108 621.238 318.449 617.136 318.314 612.235Z"/>
	<path fill="#2BF1F2" transform="scale(0.944933 0.944933)" d="M312.449 536.06L366.038 479.529L366.029 504.705L366.024 553.335L366.048 571.068L318.346 571.014L318.314 612.235C318.219 605.725 318.769 537.889 317.737 536.576L312.449 536.06Z"/>
	<path fill="#0E9F94" transform="scale(0.944933 0.944933)" d="M366.029 504.705L366.024 553.335L319.407 553.681L366.029 504.705Z"/>
	<path fill="#20C7B5" transform="scale(0.944933 0.944933)" d="M312.449 536.06L289.044 536.007L289.319 394.704L366.016 394.503L366.038 479.529L312.449 536.06Z"/>
	<defs>
		<linearGradient id="gradient_5" gradientUnits="userSpaceOnUse" x1="599.93018" y1="768.79669" x2="637.44458" y2="570.45026">
			<stop offset="0" stop-color="#0A6681"/>
			<stop offset="1" stop-color="#0A8A92"/>
		</linearGradient>
	</defs>
	<path fill="url(#gradient_5)" transform="scale(0.944933 0.944933)" d="M577.402 769.131C578.474 768.638 579.383 767.845 580.237 767.04C582.185 765.203 583.636 762.465 583.987 759.798C584.708 754.318 584.096 747.981 584.091 742.429L584.036 702.743L584.288 574.501L663.005 574.453L663.016 716.187L589.096 762.914C585.452 765.187 581.321 769.403 577.373 770.772L577.402 769.131Z"/>
	<defs>
		<linearGradient id="gradient_6" gradientUnits="userSpaceOnUse" x1="611.48914" y1="447.36038" x2="657.80835" y2="135.5271">
			<stop offset="0" stop-color="#0E9C9F"/>
			<stop offset="1" stop-color="#28D0B5"/>
		</linearGradient>
	</defs>
	<path fill="url(#gradient_6)" transform="scale(0.944933 0.944933)" d="M607.398 116.002C609.313 119.143 607.026 123.748 609.544 126.744L657.606 157.624L668.654 164.749C670.705 166.083 673.313 167.546 674.915 169.408L675.033 259.067L663.53 259.241L663.035 444.526L584.14 444.528L584.3 288.413L584.376 259.576C588.012 255.422 591.616 253.015 596.593 250.738L596.978 119.954C597.012 118.855 596.921 117.581 597.396 116.571C597.724 115.873 598.766 116.363 599.439 116.461C602.183 116.858 604.166 117.126 606.866 116.194L607.398 116.002Z"/>
	<path fill="#2BF1F2" transform="scale(0.944933 0.944933)" d="M607.398 116.002C609.313 119.143 607.026 123.748 609.544 126.744L609.482 250.675C615.292 253.324 621.04 256.243 623.313 262.69C625.647 269.31 624.932 278.438 621.755 284.663C619.092 289.88 613.897 294.093 608.256 295.666L606.25 296.074L605.616 296.212C602.34 296.88 597.892 296.855 594.75 295.697L594.171 295.495C590.338 294.106 587.342 291.015 584.3 288.413L584.376 259.576C588.012 255.422 591.616 253.015 596.593 250.738L596.978 119.954C597.012 118.855 596.921 117.581 597.396 116.571C597.724 115.873 598.766 116.363 599.439 116.461C602.183 116.858 604.166 117.126 606.866 116.194L607.398 116.002Z"/>
	<path fill="#041026" transform="scale(0.944933 0.944933)" d="M277.831 263.749L580.464 263.415L580.374 448.171L667.023 448.089L667.023 263.483L741.347 263.429C753.349 263.432 765.791 262.778 777.75 263.538C779.146 263.627 780.235 264.024 781.263 264.988C783.031 266.645 783.708 268.884 783.804 271.25L783.824 338.78L783.847 479.212L783.8 684.21L783.735 755.349C783.671 758.033 783.779 759.914 781.786 761.975C779.502 764.335 778.494 764.817 775.107 764.838L704.972 764.74L683.814 764.734C680.061 764.731 675.782 765.1 672.103 764.439C670.884 764.22 669.798 763.195 668.974 762.324C667.906 761.193 667.223 759.806 667.06 758.244C666.43 752.169 666.994 745.363 666.993 739.208L667.012 698.688L667.001 570.495L600.153 570.662L580.479 570.746L580.336 710.753L580.368 747.823C580.372 750.714 581.199 757.826 580.001 760.248L579.482 761C578.235 762.884 577.131 763.942 575.283 765.268L489.092 765.181L470.871 765.12C469.556 765.109 466.645 765.454 465.577 765.068C464.949 764.841 463.971 763.867 463.505 763.396C462.241 762.117 461.15 760.733 460.665 758.972C459.634 755.227 460.291 749.752 460.273 745.855L460.076 718.247C452.458 725.678 444.795 733.082 436.22 739.419C409.549 759.131 375.908 769.406 342.868 769.219C301.92 768.987 261.723 751.781 232.987 722.74C214.619 704.177 201.743 680.933 194.342 656.013C192.056 648.316 190.047 640.885 189.022 632.901C187.559 621.508 188.252 609.555 188.246 598.082L188.338 539.935L314.452 540.07L314.422 542.241L314.406 591.296C314.41 600.335 313.326 610.897 315.124 619.734C316.086 624.462 318.51 628.708 321.899 632.101C327.434 637.643 334.362 640.126 342.174 640.07C350.255 640.012 357.591 637.817 363.395 631.882C366.751 628.45 368.835 624.338 369.549 619.574C370.652 612.219 369.967 604.064 369.944 596.599L369.901 555.746L369.709 390.71L285.703 390.881C273.072 390.891 259.96 391.625 247.375 390.821C246.097 390.739 244.681 390.68 243.638 389.85C242.652 389.065 242.156 388.032 241.989 386.812C241.407 382.583 241.887 377.65 241.886 373.359L241.9 341.914L241.685 293.897L241.561 268C241.605 266.554 241.926 265.537 242.75 264.335C243.423 264.056 244.035 263.866 244.772 263.843L277.831 263.749Z"/>
	<defs>
		<linearGradient id="gradient_7" gradientUnits="userSpaceOnUse" x1="753.56677" y1="349.19806" x2="698.74194" y2="306.04495">
			<stop offset="0" stop-color="#475F94"/>
			<stop offset="1" stop-color="#5C75A3"/>
		</linearGradient>
	</defs>
	<path fill="url(#gradient_7)" transform="scale(0.944933 0.944933)" d="M703.001 299.092L749.992 299.067L750.009 356.474L703.183 356.486C702.245 354.736 702.988 304.906 703.001 299.092Z"/>
	<path fill="#2BF1F2" transform="scale(0.944933 0.944933)" d="M496.403 298.995L544.574 298.984L544.829 356.59L496.431 356.612L496.403 298.995Z"/>
	<path fill="#1455F2" transform="scale(0.944933 0.944933)" d="M496.034 646.178L544.635 646.342L544.624 730.895L496.11 730.696L496.034 646.178Z"/>
	<path fill="#0F7BF9" transform="scale(0.944933 0.944933)" d="M524.917 543.758L544.77 543.661L544.928 633.037L516.555 633.043L496.176 633.07L496.04 543.896L524.917 543.758Z"/>
	<defs>
		<linearGradient id="gradient_8" gradientUnits="userSpaceOnUse" x1="518.14655" y1="531.55829" x2="522.36469" y2="368.00647">
			<stop offset="0" stop-color="#0B92FD"/>
			<stop offset="1" stop-color="#1BE6FE"/>
		</linearGradient>
	</defs>
	<path fill="url(#gradient_8)" transform="scale(0.944933 0.944933)" d="M496.484 417.284L496.195 368.705L544.624 368.796L544.586 378.852L544.951 482.362L544.886 531C543.883 531.499 543.344 531.548 542.25 531.653L496.264 531.61L496.484 417.284Z"/>
	<path fill="#193B75" transform="scale(0.944933 0.944933)" d="M702.95 545.383L749.299 545.4L749.039 730.118L703.096 730.463L702.95 545.383Z"/>
	<defs>
		<linearGradient id="gradient_9" gradientUnits="userSpaceOnUse" x1="693.98334" y1="555.7616" x2="626.55328" y2="404.24365">
			<stop offset="0" stop-color="#294675"/>
			<stop offset="1" stop-color="#4B689C"/>
		</linearGradient>
	</defs>
	<path fill="url(#gradient_9)" transform="scale(0.944933 0.944933)" d="M544.951 482.362L702.985 481.91L702.959 369.044L737.457 369.032C740.792 369.032 746.837 368.225 749.876 369.307L750.071 532.676L606.958 532.49L565.748 532.522L553.001 532.546C549.938 532.544 547.119 532.859 544.25 531.833L542.25 531.653C543.344 531.548 543.883 531.499 544.886 531L544.951 482.362Z"/>
	<defs>
		<linearGradient id="gradient_10" gradientUnits="userSpaceOnUse" x1="476.42761" y1="664.96539" x2="238.57716" y2="329.35696">
			<stop offset="0" stop-color="#BCC6E0"/>
			<stop offset="1" stop-color="#FFFDFD"/>
		</linearGradient>
	</defs>
	<path fill="url(#gradient_10)" transform="scale(0.944933 0.944933)" d="M279.037 299.209L461.637 299.005L461.536 517.877L461.513 583.063L461.499 609.829C461.502 622.312 461.339 633.727 457.986 645.875C449.408 676.957 431.5 701.629 403.149 717.534C375.981 732.775 342.866 737.409 312.719 728.811C280.163 719.526 253.29 698.723 236.803 669.194C230.989 657.471 225.684 644.695 224.573 631.521C223.955 624.183 224.398 616.505 224.401 609.137L224.441 571.977L278.503 571.95L278.516 602.624C278.527 608.352 278.199 614.336 278.863 620.026C280.939 637.798 289.491 653.473 303.75 664.409C316.886 674.483 334.688 678.985 351.087 676.698C365.42 674.699 378.751 669.134 389.077 658.727C397.437 650.3 404.119 638.335 406.2 626.617C407.868 617.225 406.954 606.757 406.938 597.182L406.928 546.921L406.931 355.864L278.961 355.937L279.037 299.209Z"/>
</svg>
